<svg xmlns="http://www.w3.org/2000/svg" height="24px" viewBox="0 -960 960 960" width="24px" fill="#FFFFFF"><path d="M472.88-541.65 226.69-645.19q-15.31-5.77-17.5-22.52-2.19-16.75 9.27-28.21l7.23-9.5q6.31-6.31 13.41-7.08 7.09-.77 14.75.08L585.86-653l120.06-119.54q13.93-14.23 33.55-14.23 19.61 0 33.84 13.99 14.34 14.11 14.34 33.75 0 19.65-14.34 33.99L653-585.5l60.28 331.84q1.26 7.24-.4 13.95-1.65 6.71-7.96 13.02l-9 9.11q-11.7 11.46-28.12 8.83-16.43-2.63-22.72-17.94L541.15-473.77 423.27-355.12l21.23 123.43q.85 6.04-.62 10.38-1.46 4.35-5.5 8.44l-9.58 8.93q-8.36 8.63-19.14 6.65-10.78-1.98-15.43-11.56l-64.81-121.03-121.69-64.85q-9.96-4.65-11.94-15.24-1.98-10.59 6.65-18.94l8.93-9.59q4.48-4.42 9.49-6.27 5.02-1.85 10.72-.61l124.3 22.88 117-119.15Z"/></svg>